<?xml version="1.0" encoding="utf-8"?>
<!-- Generator: Adobe Illustrator 17.0.0, SVG Export Plug-In . SVG Version: 6.00 Build 0)  -->
<!DOCTYPE svg PUBLIC "-//W3C//DTD SVG 1.1//EN" "http://www.w3.org/Graphics/SVG/1.1/DTD/svg11.dtd">
<svg version="1.1" id="图层_1" xmlns="http://www.w3.org/2000/svg" xmlns:xlink="http://www.w3.org/1999/xlink" x="0px" y="0px"
	 width="283.46px" height="283.46px" viewBox="0 0 283.46 283.46" enable-background="new 0 0 283.46 283.46" xml:space="preserve">
<path fill="#DFC056" d="M48.47,167.61h-0.358l-29.909-22.403v-4.289l30.267-22.581v8.282l-22.104,16.384l22.104,16.325V167.61z"/>
<path fill="#DA3114" d="M95.064,182.028h-7.924v-50.881l-17.458,0.476v50.405h-7.924V88.784h7.924v36.881
	c3.138-0.397,6.275-0.795,9.414-1.192c3.972-0.516,7.09-0.775,9.354-0.775c4.409,0,6.614,2.165,6.614,6.495V182.028z"/>
<path fill="#0F87A0" d="M128.726,182.028h-11.262c-4.449,0-6.672-2.243-6.672-6.732v-44.268h-6.971v-6.971h6.971v-18.053h7.805
	v18.053h10.129v6.971h-10.129v44.03h10.129V182.028z"/>
<path fill="#138648" d="M197.124,182.028h-7.924v-50.881l-17.278,0.476v50.405h-7.865v-50.881l-17.278,0.476v50.405h-7.924v-57.972
	h7.924v1.609c3.099-0.397,6.196-0.814,9.295-1.252c3.773-0.476,6.891-0.715,9.354-0.715c2.423,0,4.21,0.736,5.363,2.204
	c3.336-0.436,6.652-0.893,9.949-1.37c4.33-0.555,7.607-0.834,9.831-0.834c4.368,0,6.554,2.165,6.554,6.495V182.028z"/>
<path fill="#0F87A0" d="M218.276,182.028h-7.805V88.784h7.805V182.028z"/>
<path fill="#DFC056" d="M262.364,145.207l-30.267,22.403v-8.282l22.045-16.325l-22.045-16.384v-8.282h0.476l29.791,22.581V145.207z"
	/>
</svg>
